<?xml version="1.0" standalone="no"?>
<!DOCTYPE svg PUBLIC "-//W3C//DTD SVG 20010904//EN"
 "http://www.w3.org/TR/2001/REC-SVG-20010904/DTD/svg10.dtd">
<svg version="1.0" xmlns="http://www.w3.org/2000/svg"
 width="1280.000000pt" height="963.000000pt" viewBox="0 0 1280.000000 963.000000"
 preserveAspectRatio="xMidYMid meet">
<g transform="translate(0.000000,963.000000) scale(0.100000,-0.100000)"
fill="#fff" stroke="none">
<path d="M11474 9558 c-39 -88 -160 -221 -278 -306 -44 -31 -117 -93 -164
-137 -93 -88 -268 -283 -322 -358 -27 -38 -49 -56 -97 -77 -136 -62 -304 -190
-419 -320 -158 -178 -241 -313 -474 -770 -263 -514 -335 -628 -480 -763 -119
-110 -252 -169 -755 -332 -347 -112 -427 -142 -625 -235 -251 -118 -522 -190
-890 -235 -176 -22 -635 -30 -845 -15 -182 12 -679 26 -885 24 -173 -3 -261
-18 -430 -74 -80 -27 -224 -73 -320 -103 -172 -54 -178 -55 -359 -66 -669 -41
-1361 -302 -2064 -777 -213 -144 -333 -193 -571 -234 -299 -51 -596 -37 -1162
55 -221 36 -308 45 -321 31 -4 -4 10 -23 32 -42 47 -41 189 -89 489 -164 313
-78 465 -101 716 -107 170 -4 239 -2 328 11 297 44 473 114 982 392 141 77
287 149 345 169 154 56 569 175 578 166 12 -12 -40 -140 -78 -191 -18 -25 -63
-69 -99 -98 -104 -85 -151 -142 -169 -209 -31 -113 -37 -205 -37 -529 0 -656
-36 -805 -358 -1467 -168 -345 -296 -537 -369 -552 -48 -10 -58 -21 -70 -76
-31 -140 -27 -337 17 -789 41 -421 44 -470 42 -780 -1 -193 3 -330 9 -354 12
-43 85 -123 138 -151 91 -47 284 -59 397 -24 85 26 221 95 234 119 32 59 -93
204 -263 305 -54 32 -100 61 -103 66 -2 5 -12 113 -20 241 -19 275 -14 648 11
803 35 228 76 325 184 438 169 177 331 281 801 516 470 234 557 289 701 438
150 154 224 313 248 533 18 161 60 161 487 -4 295 -114 376 -137 500 -143 81
-4 106 -2 132 11 l32 17 0 87 c0 110 13 137 60 136 120 -4 384 -25 430 -34 30
-6 183 -53 340 -104 338 -112 455 -146 627 -185 500 -113 924 -105 1463 29 87
22 151 30 265 36 l150 7 32 -27 c52 -43 55 -85 50 -540 -2 -220 -9 -448 -15
-506 -12 -103 -30 -536 -37 -840 -4 -162 -8 -194 -49 -356 -36 -146 -46 -208
-47 -321 -1 -68 2 -107 10 -117 7 -8 35 -22 62 -31 57 -19 74 -41 83 -105 6
-39 11 -48 36 -57 34 -13 62 -54 92 -138 15 -39 37 -74 64 -100 22 -22 44 -52
47 -67 10 -40 66 -99 113 -119 58 -26 206 -59 265 -59 55 0 247 32 319 53 52
15 68 39 77 117 14 118 -69 210 -190 210 -16 0 -67 18 -114 41 -115 55 -173
112 -202 201 -62 186 -49 394 69 1108 27 162 54 349 60 415 9 98 21 147 61
270 50 149 51 151 59 330 10 206 33 341 89 540 63 219 139 411 258 650 57 112
90 165 134 213 66 72 140 208 189 347 96 273 112 450 86 925 -31 555 -36 737
-26 915 16 298 55 494 136 685 44 103 127 240 151 248 20 6 91 -67 118 -122
15 -31 37 -113 55 -204 55 -288 88 -322 328 -347 75 -8 153 -17 172 -20 208
-30 415 -25 545 16 61 19 78 30 134 88 79 81 359 403 383 439 25 38 23 55 -19
136 -32 61 -69 103 -273 306 -257 255 -312 322 -373 448 -35 72 -40 93 -45
173 l-5 91 -57 77 c-31 42 -111 130 -176 196 -204 205 -255 265 -290 340 -64
140 -76 260 -49 480 17 133 19 235 7 235 -5 0 -18 -19 -28 -42z"/>
</g>
</svg>
